<?xml version="1.0" standalone="no"?>
<!DOCTYPE svg PUBLIC "-//W3C//DTD SVG 20010904//EN"
 "http://www.w3.org/TR/2001/REC-SVG-20010904/DTD/svg10.dtd">
<svg version="1.0" xmlns="http://www.w3.org/2000/svg"
 width="256.000000pt" height="256.000000pt" viewBox="0 0 256.000000 256.000000"
 preserveAspectRatio="xMidYMid meet">
<metadata>
Created by potrace 1.14, written by Peter Selinger 2001-2017
</metadata>
<g transform="translate(0.000000,256.000000) scale(0.100000,-0.100000)"
fill="#000000" stroke="none">
<path d="M1045 2549 c-129 -28 -256 -123 -318 -238 -16 -28 -39 -93 -51 -143
-18 -72 -26 -92 -42 -95 -27 -5 -343 -3 -379 2 -16 3 -49 7 -72 11 l-43 6 0
-941 0 -941 735 0 c404 0 735 -3 735 -7 1 -17 69 -83 120 -115 73 -46 84 -50
160 -65 190 -38 382 57 475 236 26 49 31 64 42 136 21 137 -31 283 -135 382
-18 17 -39 34 -45 36 -8 2 -12 171 -12 640 l0 636 -47 -2 c-27 -1 -48 -5 -48
-8 0 -3 -6 -6 -12 -6 -7 -1 -56 -4 -108 -9 -86 -7 -185 -9 -297 -5 -41 1 -41
2 -48 44 -26 162 -104 291 -227 376 -27 17 -48 29 -48 26 0 -3 -10 1 -22 9
-55 35 -225 54 -313 35z m234 -111 c14 -6 31 -12 38 -14 15 -3 91 -56 121 -84
51 -48 107 -167 114 -239 3 -34 2 -35 -37 -37 -67 -5 -102 -14 -196 -50 -123
-47 -159 -47 -287 5 -109 43 -150 54 -219 55 -38 0 -47 6 -45 27 1 4 2 23 4
43 1 20 5 36 8 36 3 0 6 8 7 18 2 29 52 108 94 151 47 46 125 88 189 100 55
10 173 4 209 -11z"/>
</g>
</svg>
